<?xml version="1.0" encoding="UTF-8"?><svg id="Capa_2" xmlns="http://www.w3.org/2000/svg" xmlns:xlink="http://www.w3.org/1999/xlink" viewBox="0 0 320 2500"><defs><style>.cls-1{fill:#001425;}.cls-2{stroke:#fff;stroke-linecap:round;stroke-linejoin:round;stroke-width:.91px;}.cls-2,.cls-3{fill:none;}.cls-4{fill:url(#blanco_fondo);opacity:.03;}</style><pattern id="blanco_fondo" x="0" y="0" width="25.99" height="27.48" patternTransform="translate(-717 -664.07)" patternUnits="userSpaceOnUse" viewBox="0 0 25.99 27.48"><g><rect class="cls-3" width="25.99" height="27.48"/><g><path class="cls-2" d="m39.03,31.87c-.03-7.17-5.85-13.3-13.04-13.3s-13.01,6.16-13.04,13.34"/><path class="cls-2" d="m35,32.73c0-.11,0-1.4-.01-1.51-.2-4.79-4.16-8.63-9-8.63s-8.59,3.63-8.98,8.24c-.02.23-.07,1.72-.07,1.95"/><path class="cls-2" d="m30.78,31.55c-.03-2.62-2.16-4.74-4.8-4.74s-4.77,2.12-4.8,4.74"/></g><g><path class="cls-2" d="m13.04,31.87c-.03-7.17-5.85-13.3-13.04-13.3s-13.01,6.16-13.04,13.34"/><path class="cls-2" d="m9.02,32.73c0-.11,0-1.4-.01-1.51-.2-4.79-4.16-8.63-9-8.63s-8.59,3.63-8.98,8.24c-.02.23-.07,1.72-.07,1.95"/><path class="cls-2" d="m4.8,31.55c-.03-2.62-2.16-4.74-4.8-4.74s-4.77,2.12-4.8,4.74"/></g><path class="cls-2" d="m52.02,18.13c-.03-7.17-5.85-13.3-13.04-13.3s-13.01,6.16-13.04,13.34"/><g><g><path class="cls-2" d="m26.03,18.13c-.03-7.17-5.85-13.3-13.04-13.3S-.02,10.99-.05,18.16"/><path class="cls-2" d="m22.01,18.99c0-.11,0-1.4-.01-1.51-.2-4.79-4.16-8.63-9-8.63s-8.59,3.63-8.98,8.24c-.02.23-.07,1.72-.07,1.95"/><path class="cls-2" d="m17.79,17.81c-.03-2.62-2.16-4.74-4.8-4.74s-4.77,2.12-4.8,4.74"/></g><path class="cls-2" d="m8.2,17.92c.03,2.62,2.16,4.74,4.8,4.74s4.77-2.12,4.8-4.74"/><path class="cls-2" d="m3.96,17.38"/></g><path class="cls-2" d="m.05,18.13C.02,10.96-5.81,4.82-12.99,4.82s-13.01,6.16-13.04,13.34"/><g><g><path class="cls-2" d="m39.03,4.39c-.03-7.17-5.85-13.3-13.04-13.3S12.98-2.76,12.95,4.42"/><path class="cls-2" d="m35,5.25c0-.11,0-1.4-.01-1.51-.2-4.79-4.16-8.63-9-8.63S17.4-1.26,17.01,3.35c-.02.23-.07,1.72-.07,1.95"/><path class="cls-2" d="m30.78,4.06c-.03-2.62-2.16-4.74-4.8-4.74s-4.77,2.12-4.8,4.74"/></g><path class="cls-2" d="m21.19,4.18c.03,2.62,2.16,4.74,4.8,4.74s4.77-2.12,4.8-4.74"/><path class="cls-2" d="m16.96,3.64"/></g><g><g><path class="cls-2" d="m13.04,4.39c-.03-7.17-5.85-13.3-13.04-13.3S-13.01-2.76-13.04,4.42"/><path class="cls-2" d="m9.02,5.25c0-.11,0-1.4-.01-1.51C8.81-1.05,4.85-4.89,0-4.89S-8.59-1.26-8.98,3.35c-.02.23-.07,1.72-.07,1.95"/><path class="cls-2" d="m4.8,4.06C4.77,1.44,2.64-.67,0-.67S-4.77,1.44-4.8,4.06"/></g><path class="cls-2" d="m-4.8,4.18c.03,2.62,2.16,4.74,4.8,4.74s4.77-2.12,4.8-4.74"/></g></g></pattern></defs><g id="OBJECTS"><rect class="cls-1" width="320" height="2500"/><rect class="cls-4" width="320" height="2500"/></g></svg>