<?xml version="1.0" encoding="UTF-8"?><svg id="Capa_2" xmlns="http://www.w3.org/2000/svg" viewBox="0 0 37.89 37.89"><defs><style>.cls-1{fill:#fff;}.cls-2,.cls-3{fill:#001425;}.cls-3{stroke:#fff;stroke-miterlimit:10;stroke-width:.5px;}.cls-4{fill:#4d456c;}.cls-5{fill:#514e74;}.cls-6{fill:#474269;}.cls-7{fill:#524a70;}.cls-8{fill:#48456c;}</style></defs><g id="Modo_de_aislamiento"><g><circle class="cls-2" cx="18.94" cy="18.94" r="18.94"/><g><path class="cls-3" d="m9.08,26.19v-13.11c.02-.07.02-.14.02-.22,0-.03,0-.06,0-.09.01-.37.13-.72.27-1.07.11-.27.25-.53.44-.76.6-.74,1.35-1.21,2.24-1.38.11-.02.23-.02.34-.03.02,0,.04,0,.06,0,.02,0,.05,0,.07,0,.01,0,.03,0,.04,0,.03,0,.06,0,.08,0h13.61s.05,0,.08,0c.01,0,.03,0,.04,0,.02,0,.05,0,.07,0,.02,0,.04,0,.06,0,.24,0,.47.04.69.11,1.09.33,1.99,1.17,2.4,2.24.12.3.19.62.19.95,0,.02,0,.04,0,.06,0,.02,0,.04,0,.06,0,.01,0,.03,0,.04,0,.03,0,.06,0,.08v13.09s0,.05,0,.08c0,.01,0,.03,0,.04,0,.02,0,.04,0,.06,0,.02,0,.04,0,.06,0,.57-.21,1.09-.49,1.58-.32.54-.79.99-1.34,1.29-.45.25-.93.43-1.46.44-.05,0-.1.01-.15,0-.04,0-.08,0-.12,0-4.52,0-9.05,0-13.57,0-.04,0-.08,0-.12,0-.82-.01-1.53-.32-2.16-.84-.67-.55-1.08-1.26-1.26-2.11-.02-.09-.02-.18-.03-.27,0-.04,0-.09,0-.13,0-.02,0-.04,0-.06,0-.01,0-.03,0-.04,0-.03,0-.06,0-.08Z"/><path class="cls-7" d="m9.11,12.86c0,.08,0,.15-.04.22v-.12s0-.07.02-.1h0s0,0,.02,0Z"/><path class="cls-6" d="m26.34,9.55s-.06,0-.08-.02h.08s0,0,0,.01c0,0,0,0,0,0Z"/><path class="cls-8" d="m29.79,26.25s0-.06.02-.08v.08s-.01.01-.02,0Z"/><path class="cls-5" d="m9.08,26.19s.02.05.02.08c0,.01-.01.01-.02,0v-.08Z"/><path class="cls-4" d="m29.81,13.08s-.02-.05-.02-.08c0,0,.01,0,.02,0v.08Z"/><path class="cls-1" d="m19.16,23.73c-.29,0-.57,0-.86,0-.13,0-.15-.01-.19-.14-.22-.63-.43-1.26-.65-1.89q-.03-.09-.13-.09c-.99,0-1.97,0-2.96,0-.02,0-.05,0-.07,0-.13,0-.1,0-.14.1-.14.43-.28.87-.42,1.3-.07.2-.13.41-.2.61-.04.12-.07.14-.2.14-.52,0-1.03,0-1.55,0,0,0-.02,0-.03,0-.1,0-.14-.04-.11-.14,0-.03.02-.06.03-.09.91-2.61,1.82-5.22,2.74-7.84.1-.27.16-.55.15-.84,0-.11.02-.13.13-.13.72,0,1.43,0,2.15,0,.12,0,.12,0,.17.14.78,2.18,1.56,4.37,2.35,6.55.25.71.51,1.42.76,2.12.06.16.04.19-.13.19-.28,0-.56,0-.84,0Z"/><path class="cls-1" d="m26.24,22.78c0,.21,0,.41,0,.62,0,.12-.04.19-.15.23-.31.12-.62.2-.95.25-.37.06-.74.09-1.12.08-.43-.01-.86-.05-1.27-.18-1.01-.32-1.66-1-1.99-2-.2-.59-.24-1.19-.18-1.81.07-.67.27-1.3.67-1.86.36-.51.82-.89,1.4-1.12.24-.1.5-.14.76-.17.24-.02.48-.03.72-.02.58.03,1.12.2,1.6.54.32.23.55.54.73.89.21.4.33.83.36,1.29.03.38,0,.77-.04,1.15-.01.12-.05.15-.16.15-.22,0-.43.04-.65.04-.18,0-.35-.02-.53-.03-.08,0-.15,0-.23,0-.86,0-1.72,0-2.58,0-.13,0-.12,0-.1.13.06.29.16.55.35.78.13.16.29.27.48.36.35.16.71.24,1.09.24.33,0,.65-.04.98-.1.26-.05.51-.1.75-.2.05-.02.06,0,.07.05,0,.02,0,.05,0,.07,0,.21,0,.41,0,.62Z"/><path class="cls-2" d="m15.79,16.31c.03.12.07.22.1.33.19.72.43,1.42.65,2.14.1.33.21.66.32.99.04.13.06.13-.09.13-.64,0-1.29,0-1.93,0-.02,0-.04,0-.06,0-.07,0-.07,0-.05-.07.04-.11.08-.21.11-.32.19-.6.37-1.2.55-1.81.14-.45.28-.9.37-1.36,0-.01,0-.03.03-.04Z"/><path class="cls-2" d="m23.69,19.57c-.35,0-.7,0-1.06,0-.02,0-.05,0-.07,0-.04,0-.06-.01-.05-.06,0-.04.01-.08.02-.12.07-.31.2-.6.45-.81.23-.19.5-.29.8-.29.18,0,.36.01.53.09.42.17.71.6.7,1.04,0,.08,0,.09-.08.11-.06.02-.12.03-.18.03-.36,0-.71,0-1.07,0,0,0,0,0,0,0Z"/></g></g></g></svg>