<?xml version="1.0" encoding="UTF-8"?><svg id="Capa_2" xmlns="http://www.w3.org/2000/svg" viewBox="0 0 37.89 37.89"><defs><style>.cls-1{fill:#fff;}.cls-2{fill:#001425;}</style></defs><g id="Modo_de_aislamiento"><g><circle class="cls-2" cx="18.94" cy="18.94" r="18.94"/><g><path class="cls-1" d="m5.97,18.78c2.26-2.26,4.51-4.51,6.77-6.77.53-.53.63-.53,1.16,0,.06.06.11.11.17.17.6.61.61.71.01,1.3-1.71,1.71-3.41,3.42-5.12,5.12-.11.11-.22.23-.36.38,1.82,1.81,3.64,3.6,5.43,5.42.21.22.5.68.42.81-.27.42-.68.76-1.09,1.05-.08.06-.44-.19-.62-.36-2.26-2.25-4.52-4.51-6.77-6.76,0-.12,0-.24,0-.36Z"/><path class="cls-1" d="m32.92,19.14c-2.27,2.27-4.55,4.54-6.81,6.82-.4.4-.72.44-1.08,0-.08-.09-.17-.17-.25-.26-.54-.55-.54-.68-.01-1.22,1.71-1.71,3.41-3.42,5.12-5.12.13-.13.29-.22.46-.35-1.89-1.88-3.7-3.67-5.5-5.49-.21-.22-.5-.68-.42-.81.27-.42.68-.75,1.09-1.06.07-.05.42.17.57.33,2.28,2.26,4.55,4.54,6.82,6.81v.36Z"/><path class="cls-1" d="m17.12,29.06c-.23-.06-.39-.09-.54-.13-.86-.24-.91-.32-.67-1.16.82-2.83,1.64-5.65,2.46-8.47.93-3.23,1.86-6.45,2.81-9.67.08-.28.33-.72.48-.71.45.03.91.21,1.33.42.09.04.07.44,0,.65-1.25,4.38-2.51,8.75-3.77,13.12-.51,1.76-1.01,3.51-1.52,5.27-.1.34-.17.73-.58.7Z"/></g></g></g></svg>