<?xml version="1.0" encoding="UTF-8"?><svg id="Capa_2" xmlns="http://www.w3.org/2000/svg" viewBox="0 0 37.89 37.89"><defs><style>.cls-1{fill:#fff;}.cls-2,.cls-3{fill:#001425;}.cls-3{stroke:#fff;stroke-miterlimit:10;stroke-width:.5px;}</style></defs><g id="Modo_de_aislamiento"><g><circle class="cls-2" cx="18.94" cy="18.94" r="18.94"/><g><path class="cls-3" d="m8.23,25.7v-13.44c.03-.33.06-.66.18-.97.56-1.46,1.6-2.38,3.13-2.73.18-.04.37-.05.56-.05,4.55,0,9.1,0,13.65,0,.89,0,1.67.34,2.35.88.74.59,1.22,1.36,1.46,2.27.06.25.08.5.08.76,0,4.29,0,8.59,0,12.88,0,.96-.3,1.79-.88,2.53-.59.75-1.35,1.22-2.27,1.46-.2.05-.4.04-.6.07h-13.93c-.18-.03-.36-.02-.54-.06-1.65-.44-2.7-1.49-3.13-3.15-.04-.15-.02-.31-.06-.47Z"/><path class="cls-1" d="m21.25,22.89c-.56,0-1.1,0-1.64,0-.08,0-.1-.04-.13-.1-.21-.63-.43-1.27-.63-1.9-.04-.11-.09-.14-.2-.14-1.06,0-2.12,0-3.18,0-.1,0-.14.03-.17.12-.2.63-.41,1.26-.61,1.89-.03.11-.08.14-.19.14-.36,0-.71,0-1.07,0q-.17,0-.12-.16c.8-2.42,1.61-4.84,2.41-7.26.16-.49.32-.97.48-1.46.03-.09.06-.13.17-.13.58,0,1.17,0,1.75,0,.09,0,.13.03.16.12.98,2.93,1.97,5.86,2.95,8.79,0,.03.01.06.02.1Z"/><path class="cls-1" d="m22.25,19.56c0-1.06,0-2.11,0-3.17,0-.12.02-.17.15-.16.41.01.82,0,1.23,0,.1,0,.13.03.13.13,0,2.14,0,4.27,0,6.41,0,.11-.04.12-.13.12-.41,0-.83,0-1.24,0-.11,0-.13-.03-.13-.14,0-1.07,0-2.13,0-3.2Z"/><path class="cls-1" d="m23.76,14.67c0,.23,0,.45,0,.68,0,.08-.03.1-.11.1-.43,0-.86,0-1.29,0-.08,0-.12-.01-.12-.11,0-.45,0-.9,0-1.34,0-.09.03-.11.11-.11.42,0,.85,0,1.27,0,.09,0,.13.02.12.12,0,.22,0,.44,0,.66Z"/><polygon class="cls-2" points="17.31 15.13 15.91 18.39 18.62 18.39 17.31 15.13"/></g></g></g></svg>