<?xml version="1.0" encoding="UTF-8"?><svg id="Capa_2" xmlns="http://www.w3.org/2000/svg" viewBox="0 0 433.67 442.13"><defs><style>.cls-1{fill:#001425;}.cls-2{fill:#f32424;}</style></defs><g id="Capa_2-2"><g><g><g><path class="cls-1" d="m226.94,433.84c-35.52,12.7-77.44,9.09-109.78.74l26.19-59.83c16.68,3.82,33.99,6.34,50.36-1.6,31.12-15.08,34.67-44.03,20.5-78.28l-14.88-27.82,16.18-35.75,70.81,32.72c23.15,55.27,12.83,143.98-59.39,169.8Z"/><polygon class="cls-1" points="189.2 64.73 0 155.63 27.94 213.79 147.64 156.28 189.2 64.73"/></g><polygon class="cls-1" points="151.85 354.33 195.94 256.84 212.12 221.1 278.81 251.28 328.13 273.59 354.74 214.79 238.72 162.3 271.21 90.52 407.06 151.98 433.67 93.19 227.68 0 193.93 74.59 152.46 166.28 64.82 350.28 151.85 354.33"/></g><polygon class="cls-2" points="123.91 368.44 96.3 426.66 62.03 366.97 123.91 368.44"/></g></g></svg>