<?xml version="1.0" encoding="UTF-8"?><svg id="Capa_2" xmlns="http://www.w3.org/2000/svg" viewBox="0 0 437.66 445.62"><defs><style>.cls-1{stroke:#fff;}.cls-1,.cls-2{stroke-miterlimit:10;stroke-width:3px;}.cls-2{fill:#fff;stroke:#000;}</style></defs><g id="Capa_2-2"><g><g><g><path class="cls-2" d="M228.94,435.82c-35.52,12.7-77.44,9.09-109.78,.74l26.19-59.83c16.68,3.82,33.99,6.34,50.36-1.6,31.12-15.08,34.67-44.03,20.5-78.28l-14.88-27.82,16.18-35.75,70.81,32.72c23.15,55.27,12.83,143.98-59.39,169.8Z"/><polygon class="cls-2" points="191.2 66.71 2 157.61 29.94 215.78 149.64 158.27 191.2 66.71"/></g><polygon class="cls-2" points="153.85 356.31 197.94 258.83 214.12 223.08 280.81 253.26 330.13 275.57 356.74 216.77 240.72 164.29 273.21 92.5 409.07 153.97 435.67 95.17 229.68 1.98 195.93 76.57 154.46 168.27 66.82 352.26 153.85 356.31"/></g><polygon class="cls-1" points="125.92 370.43 98.3 428.64 64.03 368.96 125.92 370.43"/></g></g></svg>