<?xml version="1.0" encoding="UTF-8"?><svg id="Capa_2" xmlns="http://www.w3.org/2000/svg" viewBox="0 0 37.89 37.89"><defs><style>.cls-1{fill:#fff;}.cls-2{fill:#001425;}</style></defs><g id="Modo_de_aislamiento"><g><circle class="cls-2" cx="18.94" cy="18.94" r="18.94"/><path class="cls-1" d="m7.15,19.42c.1-.55.44-.99.73-1.45,1.04-1.64,2.09-3.28,3.13-4.93.3-.48.69-.83,1.22-1.04.67-.27,1.32-.57,1.98-.86.92-.4,1.14-.41,2.09-.1.04-.06.09-.13.14-.19.73-1.04,1.46-2.09,2.19-3.13.33-.47.68-.53,1.16-.2.67.47,1.34.94,2.01,1.41.45.32.51.67.2,1.13-.53.76-1.06,1.52-1.59,2.27-.05.07-.1.15-.16.24.29.14.57.28.85.42,1.24.61,2.47,1.22,3.72,1.81.16.08.34.12.52.12,1.43,0,2.85,0,4.28,0,.6,0,.85.25.85.84,0,2.62,0,5.25,0,7.87,0,.4-.15.67-.52.85-.83.4-1.65.82-2.48,1.24-.62.31-1.1,0-1.1-.68,0-.49,0-.99,0-1.51-2.76,1.25-5.5,1.28-8.28.02,0,.91-.3,1.64-1.12,2.06-.81.42-1.58.28-2.29-.27-1.12.88-2.52.55-3.18-.54-.8.43-1.59.87-2.4,1.29-.15.08-.35.15-.51.13-.41-.03-.65-.38-.59-.81.07-.54.16-1.08.24-1.62.05-.36.12-.72.16-1.08.03-.29.11-.55.3-.77.05-.06.09-.13.15-.22-.58-.14-1.05-.42-1.34-.92-.15-.26-.23-.55-.34-.83,0-.18,0-.36,0-.55Zm9.54-1.78c.51.03.96-.05,1.4-.19.61-.2,1.12-.56,1.59-.98.3-.27.7-.23.95.06.24.28.25.69-.05.94-.44.36-.89.71-1.38.99-.77.43-1.62.58-2.5.57-1.33,0-2.67,0-4,0-.98,0-1.62.79-1.41,1.7.14.6.68,1.02,1.36,1.03,1.24,0,2.47.03,3.71,0,.81-.03,1.52.13,2.23.52,1.01.55,2.12.81,3.27.85,1.53.06,2.95-.32,4.31-1.01.14-.07.19-.15.19-.31,0-1.75,0-3.5,0-5.26,0-.08,0-.16-.01-.25-.45,0-.88.01-1.3,0-.2,0-.41-.05-.59-.14-1.6-.77-3.2-1.56-4.8-2.34-.07-.03-.13-.06-.22-.1-.92,1.31-1.83,2.61-2.75,3.94Zm-1.23-5.39s-.02-.05-.03-.08c-.13.03-.27.04-.4.09-.79.34-1.59.68-2.37,1.04-.16.07-.32.2-.41.34-1.22,1.89-2.42,3.79-3.63,5.69-.12.18-.14.38-.07.59.11.3.37.47.71.45.34-.02.59-.21.66-.52.19-.87.68-1.51,1.47-1.92.09-.05.18-.14.24-.23.59-.83,1.17-1.66,1.75-2.5.69-.99,1.38-1.97,2.07-2.96Zm13.63,4.05h-1.35v7.75c.4-.2.77-.4,1.15-.57.15-.07.21-.15.2-.32,0-2.21,0-4.41,0-6.62,0-.07,0-.15,0-.24Zm-15.74,1.35c.53,0,.99,0,1.46,0,.16,0,.24-.05.33-.18,1.24-1.78,2.48-3.55,3.72-5.33.04-.06.08-.12.12-.19-.38-.26-.74-.52-1.11-.78-1.51,2.16-3,4.29-4.53,6.47Zm-3.03,4.32c-.18.26-.45.52-.55.84-.15.47-.17.97-.25,1.5.71-.42,1.53-.63,1.82-1.46-.33-.28-.66-.57-1.02-.88Zm9.46-11.12c.27-.38.52-.74.78-1.12-.38-.27-.74-.52-1.12-.78-.27.38-.52.74-.78,1.12.38.26.74.52,1.12.78Zm-3.07,12.28h-1.36c0,.25-.01.48,0,.71.02.37.31.63.67.63.37,0,.66-.27.68-.65.01-.23,0-.45,0-.7Zm-2.74.01s-.04-.02-.06-.02c-.25,0-.5.02-.75-.01-.27-.04-.42.09-.51.31-.05.13-.05.28-.04.42.02.36.3.63.64.64.35.01.67-.22.7-.57.03-.25,0-.51,0-.76Z"/></g></g></svg>