<?xml version="1.0" encoding="UTF-8"?><svg id="Capa_2" xmlns="http://www.w3.org/2000/svg" viewBox="0 0 87.61 26.97"><defs><style>.cls-1{fill:#001425;}.cls-2{fill:#f32424;}.cls-3{fill:none;stroke:#001425;stroke-miterlimit:10;stroke-width:1.15px;}</style></defs><g id="fondo"><g id="Capa_3"><g><rect class="cls-1" x="3.44" y="2.97" width="80.74" height="21.04" rx="10.52" ry="10.52"/><g><path class="cls-2" d="m17.03,9.24h2.71l1.01,4.23c.27,1.03.45,2.03.72,3.07h.06c.27-1.04.46-2.04.72-3.07l.98-4.23h2.62l-2.86,9.69h-3.1l-2.86-9.69Z"/><path class="cls-2" d="m26.66,15.2c0-2.44,1.91-3.91,3.91-3.91,2.36,0,3.55,1.61,3.55,3.61,0,.45-.07.89-.1,1.07h-5.41v-1.67h3.64l-.36.45c0-.98-.39-1.52-1.22-1.52-.98,0-1.52.63-1.52,1.97s.69,1.97,2.06,1.97c.6,0,1.13-.15,1.79-.45l.83,1.52c-.89.57-2.06.86-2.98.86-2.36,0-4.17-1.43-4.17-3.91Z"/><path class="cls-2" d="m36.41,11.48h2.1l.19,1.58h.06c.72-1.22,1.79-1.76,2.91-1.76.69,0,1,.12,1.42.3l-.51,2.15c-.45-.13-.76-.21-1.3-.21-.85,0-1.76.45-2.31,1.7v3.7h-2.56v-7.45Z"/><path class="cls-2" d="m53.5,14.16c0-3.25,2.12-5.1,4.74-5.1,1.25,0,2.3.6,2.98,1.25l-1.4,1.58c-.45-.39-.92-.63-1.58-.63-1.19,0-2.12,1.04-2.12,2.8s.92,2.83,2.24,2.83c.63,0,1.16-.33,1.58-.78l1.4,1.55c-.81.95-1.94,1.43-3.25,1.43-2.42,0-4.59-1.64-4.59-4.95Z"/><path class="cls-2" d="m61.76,9.24h2.71l1.01,4.23c.27,1.03.45,2.03.72,3.07h.06c.27-1.04.46-2.04.72-3.07l.98-4.23h2.62l-2.86,9.69h-3.1l-2.86-9.69Z"/></g><rect class="cls-3" x=".57" y=".57" width="86.46" height="25.82" rx="12.06" ry="12.06"/></g></g></g></svg>