<?xml version="1.0" encoding="UTF-8"?><svg id="Capa_2" xmlns="http://www.w3.org/2000/svg" viewBox="0 0 37.89 37.89"><defs><style>.cls-1{fill:#fff;}.cls-2,.cls-3{fill:#001425;}.cls-3{stroke:#fff;stroke-miterlimit:10;stroke-width:.5px;}</style></defs><g id="Modo_de_aislamiento"><g><circle class="cls-2" cx="18.94" cy="18.94" r="18.94"/><g><path class="cls-3" d="m18.59,8.18c2.35,0,4.69,0,7.04,0,1.95,0,3.51,1.23,3.94,3.12.06.28.09.57.09.87,0,4.55,0,9.1,0,13.66,0,2.24-1.68,4-3.93,4.01-4.78.02-9.56.01-14.34,0-.98,0-1.86-.33-2.59-1-.85-.77-1.33-1.74-1.33-2.88-.01-4.64-.02-9.28,0-13.92.01-2.14,1.8-3.86,3.94-3.86,2.39,0,4.78,0,7.17,0Zm-6.13,10.41c0,1.52,0,3.05,0,4.57,0,.25.05.35.32.33.45-.02.91-.02,1.36,0,.28.01.35-.09.34-.35-.01-.82,0-1.64-.01-2.46,0-.25.07-.32.31-.29.24.03.47.03.71.02.62-.02,1.23-.06,1.81-.28,1.12-.43,1.84-1.15,2.06-2.41.24-1.37-.09-2.48-1.2-3.31-.68-.51-1.49-.69-2.33-.71-1.03-.02-2.05,0-3.08.04-.25,0-.3.08-.3.32.01,1.51,0,3.03,0,4.54Zm7.97,3.72h0c0,.22,0,.43,0,.65,0,.2.06.3.26.38.83.32,1.7.41,2.58.33.66-.06,1.29-.24,1.81-.69.91-.77,1.23-2.63-.5-3.55-.59-.31-1.24-.49-1.82-.82-.21-.12-.41-.27-.37-.56.05-.29.29-.34.53-.39.05,0,.11-.01.16-.01.67-.01,1.33.06,1.95.35.3.14.39.06.39-.27,0-.37-.02-.74,0-1.1.01-.25-.08-.37-.32-.44-.89-.26-1.79-.29-2.69-.13-.82.14-1.48.58-1.79,1.36-.53,1.31.02,2.08,1.02,2.76.42.29.91.44,1.38.63.22.09.44.18.62.35.25.24.19.57-.13.7-.19.08-.39.12-.6.13-.77.02-1.49-.16-2.18-.5-.3-.15-.31-.15-.31.2,0,.21,0,.41,0,.62Z"/><path class="cls-1" d="m12.47,18.59c0-1.51,0-3.03,0-4.54,0-.24.05-.31.3-.32,1.03-.03,2.05-.06,3.08-.04.84.02,1.65.2,2.33.71,1.11.83,1.44,1.93,1.2,3.31-.22,1.26-.94,1.98-2.06,2.41-.58.22-1.2.26-1.81.28-.24,0-.48,0-.71-.02-.24-.03-.32.04-.31.29.02.82,0,1.64.01,2.46,0,.26-.06.37-.34.35-.45-.02-.91-.02-1.36,0-.27.01-.33-.09-.32-.33,0-1.52,0-3.05,0-4.57Zm2.02-1.52c0,.44,0,.88,0,1.33,0,.12-.02.24.17.24.61,0,1.23.04,1.82-.17.63-.23.99-.75.97-1.45-.02-.73-.4-1.19-1.08-1.39-.54-.16-1.09-.09-1.63-.12-.21,0-.25.08-.25.26.01.43,0,.86,0,1.29Z"/><path class="cls-1" d="m20.44,22.3c0-.21,0-.41,0-.62,0-.34,0-.35.31-.2.69.35,1.41.52,2.18.5.21,0,.41-.05.6-.13.32-.13.38-.46.13-.7-.18-.17-.4-.26-.62-.35-.47-.19-.96-.35-1.38-.63-1-.68-1.54-1.45-1.02-2.76.32-.79.98-1.22,1.79-1.36.9-.16,1.8-.13,2.69.13.24.07.33.18.32.44-.02.37,0,.73,0,1.1,0,.33-.09.4-.39.27-.62-.29-1.28-.37-1.95-.35-.05,0-.11,0-.16.01-.24.04-.48.1-.53.39-.05.28.16.44.37.56.58.33,1.23.51,1.82.82,1.73.92,1.4,2.77.5,3.55-.53.45-1.16.63-1.81.69-.88.08-1.74,0-2.58-.33-.2-.08-.27-.18-.26-.38.01-.22,0-.43,0-.65h0Z"/><path class="cls-2" d="m14.49,17.07c0-.43,0-.86,0-1.29,0-.19.04-.27.25-.26.55.02,1.09-.04,1.63.12.68.2,1.05.66,1.08,1.39.02.7-.33,1.22-.97,1.45-.59.21-1.21.18-1.82.17-.19,0-.17-.12-.17-.24,0-.44,0-.88,0-1.33Z"/></g></g></g></svg>